# xmcd
#
# Track frame offsets:
#	150
#	15629
#	25075
#	37552
#	48162
#	65355
#	77135
#	86700
#	100549
#	109076
#	117282
#	131256
#
# Disc length: 1895 seconds
#
# Revision: 1
# Processed by: cddbd v1.5.1PL2 Copyright (c) Steve Scherf et al.
# Submitted via: audiograbber 1.83.01
#
DISCID=8107650c
DTITLE=Prague Radio Dance Orchestra - Famous Western Film Melodies
DYEAR=1975
DGENRE=Country
TTITLE0=The big country
TTITLE1=How the west was won
TTITLE2=Once upon a time in the west (Harmonica)
TTITLE3=For a few dollars more
TTITLE4=Mackenna's gold
TTITLE5=The good, the bad and the ugly
TTITLE6=The magnificent seven
TTITLE7=High noon
TTITLE8=The fastest guitar alive
TTITLE9=The alamo (The green leaves of summer)
TTITLE10=Der Schatz im Silbersee
TTITLE11=North to Alaska
EXTD=
EXTT0=
EXTT1=
EXTT2=
EXTT3=
EXTT4=
EXTT5=
EXTT6=
EXTT7=
EXTT8=
EXTT9=
EXTT10=
EXTT11=
PLAYORDER=
